<?xml version="1.0" encoding="utf-8"?>
<!-- Generator: Adobe Illustrator 16.0.0, SVG Export Plug-In . SVG Version: 6.00 Build 0)  -->
<!DOCTYPE svg PUBLIC "-//W3C//DTD SVG 1.1//EN" "http://www.w3.org/Graphics/SVG/1.1/DTD/svg11.dtd">
<svg version="1.1" id="Layer_1" xmlns="http://www.w3.org/2000/svg" xmlns:xlink="http://www.w3.org/1999/xlink" x="0px" y="0px"
	 width="512px" height="512px" viewBox="0 0 512 512" enable-background="new 0 0 512 512" xml:space="preserve">
<circle fill="#FFFFFF" stroke="#000000" stroke-width="2.3817" stroke-miterlimit="10" cx="137.332" cy="66.375" r="17.223"/>
<path fill="#FFFFFF" stroke="#000000" stroke-width="1.8" stroke-miterlimit="10" d="M243.229,331.105l-0.056,29.845l-93.294-58.552
	l93.512-58.203l-0.052,28.24c32.716-1.58,62.989-5.759,87.493-12.027V40c0-2.761-2.238-5-5-5h-216c-2.762,0-5,2.239-5,5v432
	c0,2.762,2.238,5,5,5h216c2.762,0,5-2.238,5-5V319.141C304.075,325.414,274.346,329.51,243.229,331.105z M168.832,61.273
	c0-1.808,1.791-3.273,4-3.273s4,1.465,4,3.273v11.454c0,1.808-1.791,3.273-4,3.273s-4-1.465-4-3.273V61.273z M112.854,66.375
	c0-13.519,10.958-24.479,24.479-24.479c13.52,0,24.479,10.96,24.479,24.479s-10.959,24.479-24.479,24.479
	C123.812,90.854,112.854,79.894,112.854,66.375z"/>
<path fill="#FFFFFF" stroke="#000000" stroke-width="1.9891" stroke-miterlimit="10" d="M353.632,160.91l0.002,38.177
	c25.528,8.951,39.522,20.368,39.499,32.78c-0.052,26.486-69.898,48.176-159.813,50.974l0.038-20.621l-64.611,40.214l64.46,40.455
	l0.04-21.363c115.805-3.984,206.582-42.479,206.669-89.568C439.972,203.222,406.244,177.557,353.632,160.91z"/>
</svg>
