<?xml version="1.0" encoding="utf-8"?>
<!-- Generator: Adobe Illustrator 16.0.0, SVG Export Plug-In . SVG Version: 6.00 Build 0)  -->
<!DOCTYPE svg PUBLIC "-//W3C//DTD SVG 1.1//EN" "http://www.w3.org/Graphics/SVG/1.1/DTD/svg11.dtd">
<svg version="1.1" id="Layer_1" xmlns="http://www.w3.org/2000/svg" xmlns:xlink="http://www.w3.org/1999/xlink" x="0px" y="0px"
	 width="512px" height="512px" viewBox="0 0 512 512" enable-background="new 0 0 512 512" xml:space="preserve">
<path fill="#FFFFFF" stroke="#000000" stroke-width="1.8" stroke-miterlimit="10" d="M301,384c-6.076,0-11,4.925-11,11
	s4.924,11,11,11c6.074,0,11-4.925,11-11S307.074,384,301,384z M301,401c-3.314,0-6-2.688-6-6s2.686-6,6-6c3.312,0,6,2.688,6,6
	S304.312,401,301,401z"/>
<path fill="#FFFFFF" stroke="#000000" stroke-width="1.8" stroke-miterlimit="10" d="M316,322v83c0,2.762-2.172,5-4.852,5H124.852
	c-2.68,0-4.852-2.238-4.852-5V85c0-2.761,2.172-5,4.852-5h186.297c2.68,0,4.852,2.239,4.852,5v179c5.201-0.742,9.973-1.553,15-2.579
	V40c0-2.761-2.238-5-5-5H110c-2.762,0-5,2.239-5,5v432c0,2.762,2.238,5,5,5h216c2.762,0,5-2.238,5-5V319.331
	C326.158,320.331,321.15,321.225,316,322z"/>
<path fill="#FFFFFF" stroke="#000000" stroke-width="1.8" stroke-miterlimit="10" d="M253,59c0,1.657-1.343,3-3,3h-64
	c-1.656,0-3-1.343-3-3l0,0c0-1.657,1.344-3,3-3h64C251.657,56,253,57.343,253,59L253,59z"/>
<path fill="#FFFFFF" stroke="#000000" stroke-width="1.9891" stroke-miterlimit="10" d="M353.632,160.91l0.002,38.177
	c25.528,8.951,39.522,20.368,39.499,32.78c-0.052,26.487-69.9,48.176-159.813,50.974l0.038-20.621l-64.611,40.214l64.459,40.454
	l0.041-21.362c115.804-3.986,206.582-42.481,206.668-89.57C439.972,203.222,406.244,177.557,353.632,160.91z"/>
</svg>
