<?xml version="1.0" encoding="UTF-8" standalone="no"?>
<!-- Created with Inkscape (http://www.inkscape.org/) -->

<svg
   xmlns:dc="http://purl.org/dc/elements/1.1/"
   xmlns:cc="http://creativecommons.org/ns#"
   xmlns:rdf="http://www.w3.org/1999/02/22-rdf-syntax-ns#"
   xmlns:svg="http://www.w3.org/2000/svg"
   xmlns="http://www.w3.org/2000/svg"
   xmlns:sodipodi="http://sodipodi.sourceforge.net/DTD/sodipodi-0.dtd"
   xmlns:inkscape="http://www.inkscape.org/namespaces/inkscape"
   width="48px"
   height="48px"
   id="svg6669"
   version="1.1"
   inkscape:version="0.48.3.1 r9886"
   sodipodi:docname="exposure.svg">
  <defs
     id="defs6671" />
  <sodipodi:namedview
     id="base"
     pagecolor="#ffffff"
     bordercolor="#666666"
     borderopacity="1.0"
     inkscape:pageopacity="0.0"
     inkscape:pageshadow="2"
     inkscape:zoom="5.6568542"
     inkscape:cx="25.058342"
     inkscape:cy="24"
     inkscape:current-layer="layer1"
     showgrid="true"
     inkscape:grid-bbox="true"
     inkscape:document-units="px"
     inkscape:window-width="1024"
     inkscape:window-height="686"
     inkscape:window-x="0"
     inkscape:window-y="30"
     inkscape:window-maximized="1" />
  <metadata
     id="metadata6674">
    <rdf:RDF>
      <cc:Work
         rdf:about="">
        <dc:format>image/svg+xml</dc:format>
        <dc:type
           rdf:resource="http://purl.org/dc/dcmitype/StillImage" />
        <dc:title />
      </cc:Work>
    </rdf:RDF>
  </metadata>
  <g
     id="layer1"
     inkscape:label="Layer 1"
     inkscape:groupmode="layer">
    <path
       style="fill:#ffffff;fill-opacity:1;fill-rule:evenodd;stroke:none"
       d="M 23.8125 4.65625 C 18.234869 4.7118102 12.718751 7.1678281 8.9375 11.84375 C 2.2152763 20.1565 3.5309999 32.340276 11.84375 39.0625 C 20.1565 45.784724 32.340276 44.469 39.0625 36.15625 C 45.784724 27.8435 44.469 15.659724 36.15625 8.9375 C 32.519422 5.9965271 28.150657 4.6130365 23.8125 4.65625 z M 23.71875 6.09375 C 27.690076 6.0540609 31.703083 7.3398801 35.03125 10.03125 C 35.072125 10.06431 35.0845 10.09166 35.125 10.125 L 12.84375 37.6875 C 12.802664 37.65487 12.75963 37.62681 12.71875 37.59375 C 5.1115101 31.442047 3.9420474 20.26349 10.09375 12.65625 C 13.554083 8.3771774 18.612759 6.1447788 23.71875 6.09375 z M 27.5 28.34375 L 34.875 28.34375 L 34.875 30.59375 L 27.5 30.59375 L 27.5 28.34375 z "
       id="path6045" />
    <text
       xml:space="preserve"
       style="font-size:21.41063309px;font-style:normal;font-weight:normal;line-height:125%;letter-spacing:0px;word-spacing:0px;fill:#ffffff;fill-opacity:1;stroke:none;font-family:Bitstream Vera Sans"
       x="8.9364386"
       y="24.125244"
       id="text6686"
       sodipodi:linespacing="125%"><tspan
         sodipodi:role="line"
         id="tspan6688"
         x="8.9364386"
         y="24.125244"
         style="font-size:18.35197067px;font-style:normal;font-variant:normal;font-weight:bold;font-stretch:normal;text-align:start;line-height:125%;writing-mode:lr-tb;text-anchor:start;fill:#ffffff;fill-opacity:1;font-family:Bitstream Vera Sans;-inkscape-font-specification:Bitstream Vera Sans Bold">+</tspan></text>
  </g>
</svg>
