<?xml version="1.0" encoding="UTF-8" standalone="no"?>
<!-- Created with Inkscape (http://www.inkscape.org/) -->

<svg
   xmlns:dc="http://purl.org/dc/elements/1.1/"
   xmlns:cc="http://creativecommons.org/ns#"
   xmlns:rdf="http://www.w3.org/1999/02/22-rdf-syntax-ns#"
   xmlns:svg="http://www.w3.org/2000/svg"
   xmlns="http://www.w3.org/2000/svg"
   xmlns:sodipodi="http://sodipodi.sourceforge.net/DTD/sodipodi-0.dtd"
   xmlns:inkscape="http://www.inkscape.org/namespaces/inkscape"
   width="48px"
   height="48px"
   id="svg6112"
   version="1.1"
   inkscape:version="0.48.3.1 r9886"
   sodipodi:docname="filter-black-white.svg">
  <defs
     id="defs6114" />
  <sodipodi:namedview
     id="base"
     pagecolor="#ffffff"
     bordercolor="#666666"
     borderopacity="1.0"
     inkscape:pageopacity="0.0"
     inkscape:pageshadow="2"
     inkscape:zoom="7"
     inkscape:cx="-29.285714"
     inkscape:cy="24"
     inkscape:current-layer="layer1"
     showgrid="true"
     inkscape:grid-bbox="true"
     inkscape:document-units="px"
     inkscape:window-width="1024"
     inkscape:window-height="686"
     inkscape:window-x="0"
     inkscape:window-y="30"
     inkscape:window-maximized="1" />
  <metadata
     id="metadata6117">
    <rdf:RDF>
      <cc:Work
         rdf:about="">
        <dc:format>image/svg+xml</dc:format>
        <dc:type
           rdf:resource="http://purl.org/dc/dcmitype/StillImage" />
        <dc:title />
      </cc:Work>
    </rdf:RDF>
  </metadata>
  <g
     id="layer1"
     inkscape:label="Layer 1"
     inkscape:groupmode="layer">
    <path
       style="fill:#ffffff;fill-opacity:1;fill-rule:evenodd;stroke:none"
       d="M 23,4.6599664 C 12.772269,5.1784112 4.65625,13.647144 4.65625,24.003716 c 0,10.690655 8.653095,19.34375 19.34375,19.34375 10.690655,0 19.34375,-8.653095 19.34375,-19.34375 C 43.34375,13.313061 34.690655,4.6599664 24,4.6599664 c -0.334083,0 -0.670073,-0.016724 -1,0 z m 0.78125,1.5625 c 0.05257,0 0.10379,-4.571e-4 0.15625,0 l 0,35.4374996 c -0.05246,4.57e-4 -0.10368,0 -0.15625,0 -9.78333,0 -17.71875,-7.93542 -17.71875,-17.71875 0,-9.78333 7.93542,-17.7187496 17.71875,-17.7187496 z"
       id="path6045"
       inkscape:connector-curvature="0" />
  </g>
</svg>
