<?xml version="1.0" encoding="UTF-8" standalone="no"?>
<!-- Generator: Adobe Illustrator 14.0.0, SVG Export Plug-In . SVG Version: 6.00 Build 43363)  -->

<svg
   xmlns:dc="http://purl.org/dc/elements/1.1/"
   xmlns:cc="http://creativecommons.org/ns#"
   xmlns:rdf="http://www.w3.org/1999/02/22-rdf-syntax-ns#"
   xmlns:svg="http://www.w3.org/2000/svg"
   xmlns="http://www.w3.org/2000/svg"
   xmlns:sodipodi="http://sodipodi.sourceforge.net/DTD/sodipodi-0.dtd"
   xmlns:inkscape="http://www.inkscape.org/namespaces/inkscape"
   version="1.1"
   id="icon-m-camera-scene-sports-screen-layer"
   x="0px"
   y="0px"
   width="32px"
   height="32px"
   viewBox="0 0 32 32"
   style="enable-background:new 0 0 32 32;"
   xml:space="preserve"
   inkscape:version="0.48.3.1 r9886"
   sodipodi:docname="icon-m-camera-scene-sports-screen.svg"><metadata
   id="metadata3045"><rdf:RDF><cc:Work
       rdf:about=""><dc:format>image/svg+xml</dc:format><dc:type
         rdf:resource="http://purl.org/dc/dcmitype/StillImage" /></cc:Work></rdf:RDF></metadata><defs
   id="defs3043" /><sodipodi:namedview
   pagecolor="#ffffff"
   bordercolor="#666666"
   borderopacity="1"
   objecttolerance="10"
   gridtolerance="10"
   guidetolerance="10"
   inkscape:pageopacity="0"
   inkscape:pageshadow="2"
   inkscape:window-width="1024"
   inkscape:window-height="686"
   id="namedview3041"
   showgrid="false"
   inkscape:zoom="13.914551"
   inkscape:cx="4.5371794"
   inkscape:cy="16"
   inkscape:window-x="0"
   inkscape:window-y="30"
   inkscape:window-maximized="1"
   inkscape:current-layer="icon-m-camera-scene-sports-screen-layer" />
<g
   id="icon-m-camera-scene-sports-screen"
   transform="matrix(0.93711619,0,0,0.93711619,1.006141,1.006141)">
	<rect
   style="fill:none"
   width="32"
   height="32"
   id="rect3035"
   x="0"
   y="0" />
	<path
   style="fill:#ffffff"
   d="m 28.945,17.43 h -1.508 c -0.826,0 -1.619,-0.658 -1.766,-1.465 L 25.405,14.526 C 25.259,13.721 24.661,12.59 24.073,12.012 L 20.053,8.055 C 19.467,7.477 18.326,6.858 17.522,6.682 L 15.467,6.225 C 14.661,6.047 13.513,6.362 12.913,6.924 L 10.268,9.4 c -0.601,0.564 -0.661,1.486 -0.137,2.053 0.521,0.563 1.465,0.588 2.091,0.053 l 1.602,-1.371 c 0.625,-0.535 1.353,-0.725 1.611,-0.42 0.259,0.305 0.013,1.039 -0.559,1.629 l -3.707,3.85 C 10.6,15.792 10.052,16.936 9.953,17.753 L 9.72,19.686 C 9.619,20.499 9.005,21.575 8.352,22.075 L 2.016,26.93 c -0.651,0.5 -0.836,1.482 -0.408,2.182 l 0.412,0.674 c 0.432,0.699 1.327,0.885 1.995,0.4 l 7.817,-5.613 c 0.669,-0.479 1.405,-0.656 1.64,-0.396 0.233,0.26 -0.103,0.893 -0.745,1.4 l -1.896,1.512 c -0.646,0.514 -0.749,1.455 -0.232,2.094 l 0.375,0.461 c 0.521,0.639 1.479,0.756 2.129,0.256 l 6.479,-4.926 c 0.65,-0.498 0.76,-1.422 0.23,-2.053 l -1.818,-2.184 c -0.525,-0.629 -0.479,-1.621 0.104,-2.195 l 3.074,-3.059 c 0.584,-0.578 1.203,-0.395 1.381,0.402 l 0.633,2.883 c 0.178,0.799 0.996,1.455 1.82,1.455 h 3.941 c 0.824,0 1.5,-0.627 1.5,-1.396 C 30.445,18.059 29.77,17.43 28.945,17.43 z"
   id="path3037"
   inkscape:connector-curvature="0" />
	<ellipse
   style="fill:#ffffff"
   cx="25.976999"
   cy="5.4699998"
   rx="4.23"
   ry="4.2020001"
   id="ellipse3039"
   d="m 30.206999,5.4699998 c 0,2.3207006 -1.893835,4.2020001 -4.23,4.2020001 -2.336164,0 -4.23,-1.8812995 -4.23,-4.2020001 0,-2.3207006 1.893836,-4.2020002 4.23,-4.2020002 2.336165,0 4.23,1.8812996 4.23,4.2020002 z"
   sodipodi:cx="25.976999"
   sodipodi:cy="5.4699998"
   sodipodi:rx="4.23"
   sodipodi:ry="4.2020001" />
</g>
</svg>