<?xml version="1.0" encoding="UTF-8" standalone="no"?>
<!-- Generator: Adobe Illustrator 14.0.0, SVG Export Plug-In . SVG Version: 6.00 Build 43363)  -->

<svg
   xmlns:dc="http://purl.org/dc/elements/1.1/"
   xmlns:cc="http://creativecommons.org/ns#"
   xmlns:rdf="http://www.w3.org/1999/02/22-rdf-syntax-ns#"
   xmlns:svg="http://www.w3.org/2000/svg"
   xmlns="http://www.w3.org/2000/svg"
   xmlns:sodipodi="http://sodipodi.sourceforge.net/DTD/sodipodi-0.dtd"
   xmlns:inkscape="http://www.inkscape.org/namespaces/inkscape"
   version="1.1"
   id="icon-m-camera-scene-landscape-screen-layer"
   x="0px"
   y="0px"
   width="32px"
   height="32px"
   viewBox="0 0 32 32"
   style="enable-background:new 0 0 32 32;"
   xml:space="preserve"
   inkscape:version="0.48.3.1 r9886"
   sodipodi:docname="icon-m-camera-scene-landscape-screen.svg"><metadata
   id="metadata3003"><rdf:RDF><cc:Work
       rdf:about=""><dc:format>image/svg+xml</dc:format><dc:type
         rdf:resource="http://purl.org/dc/dcmitype/StillImage" /></cc:Work></rdf:RDF></metadata><defs
   id="defs3001" /><sodipodi:namedview
   pagecolor="#ffffff"
   bordercolor="#666666"
   borderopacity="1"
   objecttolerance="10"
   gridtolerance="10"
   guidetolerance="10"
   inkscape:pageopacity="0"
   inkscape:pageshadow="2"
   inkscape:window-width="687"
   inkscape:window-height="480"
   id="namedview2999"
   showgrid="false"
   inkscape:zoom="7.375"
   inkscape:cx="16"
   inkscape:cy="16"
   inkscape:window-x="0"
   inkscape:window-y="30"
   inkscape:window-maximized="0"
   inkscape:current-layer="icon-m-camera-scene-landscape-screen-layer" />
<g
   id="icon-m-camera-scene-landscape-screen"
   transform="matrix(0.90993086,0,0,0.90993086,1.4411062,1.4411062)">
	<rect
   style="fill:none"
   width="32"
   height="32"
   id="rect2993"
   x="0"
   y="0" />
	<path
   style="fill:#ffffff"
   d="m 20.598,10.326 c 0.658,0 1.252,-0.252 1.709,-0.658 0.612,0.872 1.479,1.421 2.443,1.421 0.963,0 1.83,-0.549 2.443,-1.421 0.457,0.406 1.05,0.658 1.707,0.658 1.438,0 2.598,-1.17 2.598,-2.612 0,-1.443 -1.16,-2.613 -2.598,-2.613 -0.332,0 -0.646,0.069 -0.938,0.183 C 27.544,3.436 26.265,2.09 24.749,2.09 23.233,2.09 21.954,3.437 21.536,5.284 21.245,5.171 20.93,5.101 20.597,5.101 19.163,5.101 18,6.271 18,7.714 c 0,1.442 1.163,2.612 2.598,2.612 z"
   id="path2995"
   inkscape:connector-curvature="0" />
	<path
   style="fill:#ffffff"
   d="M 19,20.5 C 15.128,11.546 7.753,0.303 0.499,27.5 h 31 C 31.498,27.5 25.451,6.224 19,20.5 z"
   id="path2997"
   inkscape:connector-curvature="0" />
</g>
</svg>