<?xml version="1.0" encoding="utf-8"?>
<!-- Generator: Adobe Illustrator 16.0.0, SVG Export Plug-In . SVG Version: 6.00 Build 0)  -->
<!DOCTYPE svg PUBLIC "-//W3C//DTD SVG 1.1//EN" "http://www.w3.org/Graphics/SVG/1.1/DTD/svg11.dtd">
<svg version="1.1" id="icon-m-toolbar-share-layer" xmlns="http://www.w3.org/2000/svg" xmlns:xlink="http://www.w3.org/1999/xlink"
	 x="0px" y="0px" width="32px" height="32px" viewBox="0 0 32 32" enable-background="new 0 0 32 32" xml:space="preserve">
<g id="icon-m-toolbar-share_1_">
	<path id="Share_2_" fill="#FFFFFF" d="M24.81,18.638c-1.587,0-2.99,0.747-3.869,1.9l-8.946-4.013
		c0.015-0.146,0.023-0.292,0.023-0.442c0-0.167-0.01-0.334-0.028-0.496l9.031-4.019c0.881,1.092,2.251,1.795,3.788,1.795
		c2.668,0,4.83-2.105,4.83-4.7c0-2.595-2.162-4.698-4.83-4.698c-2.667,0-4.827,2.104-4.827,4.699c0,0.295,0.031,0.583,0.085,0.862
		l-8.864,3.944c-0.867-1.257-2.339-2.084-4.013-2.084c-2.667-0.001-4.829,2.102-4.829,4.697c0,2.595,2.161,4.699,4.828,4.699
		c1.691,0,3.179-0.847,4.04-2.128l8.818,3.952c-0.04,0.238-0.064,0.48-0.064,0.731c0,2.596,2.161,4.699,4.828,4.699
		s4.83-2.104,4.83-4.701C29.64,20.74,27.477,18.638,24.81,18.638z"/>
</g>
</svg>
