<?xml version="1.0" encoding="utf-8"?>
<!-- Generator: Adobe Illustrator 16.0.0, SVG Export Plug-In . SVG Version: 6.00 Build 0)  -->
<!DOCTYPE svg PUBLIC "-//W3C//DTD SVG 1.1//EN" "http://www.w3.org/Graphics/SVG/1.1/DTD/svg11.dtd">
<svg version="1.1" id="Layer_1" xmlns="http://www.w3.org/2000/svg" xmlns:xlink="http://www.w3.org/1999/xlink" x="0px" y="0px"
	 width="512px" height="512px" viewBox="0 0 512 512" enable-background="new 0 0 512 512" xml:space="preserve">
<path fill="#FFFFFF" stroke="#000000" stroke-width="1.6345" stroke-miterlimit="10" d="M471,117.841H41
	c-4.255,0-7.706,3.882-7.706,8.667v258.984c0,4.787,3.451,8.667,7.706,8.667h430c4.257,0,7.706-3.88,7.706-8.667V126.508
	C478.706,121.723,475.257,117.841,471,117.841z M256,342.5c-47.773,0-86.5-38.728-86.5-86.5c0-47.773,38.727-86.5,86.5-86.5
	c47.772,0,86.5,38.727,86.5,86.5C342.5,303.772,303.772,342.5,256,342.5z M457.853,152.767c0,3.673-2.649,6.651-5.915,6.651h-41.35
	c-3.266,0-5.914-2.979-5.914-6.651v-12.607c0-3.674,2.648-6.651,5.914-6.651h41.35c3.266,0,5.915,2.978,5.915,6.651V152.767z"/>
</svg>
