<?xml version="1.0" encoding="utf-8"?>
<!-- Generator: Adobe Illustrator 16.0.0, SVG Export Plug-In . SVG Version: 6.00 Build 0)  -->
<!DOCTYPE svg PUBLIC "-//W3C//DTD SVG 1.1//EN" "http://www.w3.org/Graphics/SVG/1.1/DTD/svg11.dtd">
<svg version="1.1" id="icon-m-camera-location-layer"
	 xmlns="http://www.w3.org/2000/svg" xmlns:xlink="http://www.w3.org/1999/xlink" x="0px" y="0px" width="32px" height="32px"
	 viewBox="0 0 32 32" enable-background="new 0 0 32 32" xml:space="preserve">
<g>
	<circle fill="none" cx="15.982" cy="8.998" r="1.363"/>
	<path fill="none" d="M15.982,3.791c-2.87,0-5.206,2.336-5.206,5.207s2.335,5.206,5.206,5.206c2.872,0,5.208-2.335,5.208-5.206
		S18.854,3.791,15.982,3.791z M15.982,12.381c-1.868,0-3.382-1.515-3.382-3.383s1.514-3.383,3.382-3.383
		c1.869,0,3.384,1.515,3.384,3.383S17.851,12.381,15.982,12.381z"/>
	<g>
		<circle fill="none" cx="15.982" cy="8.998" r="1.363"/>
		<g>
			<path fill="#FFFFFF" d="M15.982,1.052c-4.82,0-10.03,3.256-8.728,11.072c0.354,2.12,8.728,18.824,8.728,18.824
				s8.374-16.902,8.73-18.824C26.145,4.373,20.804,1.052,15.982,1.052z M15.982,14.204c-2.87,0-5.206-2.335-5.206-5.206
				s2.335-5.207,5.206-5.207c2.872,0,5.208,2.336,5.208,5.207S18.854,14.204,15.982,14.204z"/>
			<path fill="#FFFFFF" d="M15.982,5.615c-1.868,0-3.382,1.515-3.382,3.383s1.514,3.383,3.382,3.383
				c1.869,0,3.384-1.515,3.384-3.383S17.851,5.615,15.982,5.615z M15.982,10.361c-0.75,0-1.363-0.611-1.363-1.363
				s0.612-1.363,1.363-1.363c0.753,0,1.365,0.611,1.365,1.363S16.735,10.361,15.982,10.361z"/>
		</g>
	</g>
</g>
</svg>
