<?xml version="1.0" encoding="utf-8"?>
<!-- Generator: Adobe Illustrator 16.0.0, SVG Export Plug-In . SVG Version: 6.00 Build 0)  -->
<!DOCTYPE svg PUBLIC "-//W3C//DTD SVG 1.1//EN" "http://www.w3.org/Graphics/SVG/1.1/DTD/svg11.dtd">
<svg version="1.1" id="Layer_1" xmlns="http://www.w3.org/2000/svg" xmlns:xlink="http://www.w3.org/1999/xlink" x="0px" y="0px"
	 width="512px" height="512px" viewBox="0 0 512 512" enable-background="new 0 0 512 512" xml:space="preserve">
<g>
	<path fill="#FFFFFF" d="M85.75,391.25h259v-185h-259V391.25z M110.75,230.25h209v137h-209V230.25z"/>
	<path fill="#FFFFFF" d="M265.25,243.25c-16.001,0.001-51.271,67.001-57,67c0,0-29.001-25.5-36.001-25.5c-4,0-49,27.5-49,34.5
		c0,20.799,0,36.5,0,36.5l187.999-1c0,0,0.007-19,0.001-43C311.249,307.749,275.249,243.25,265.25,243.25z"/>
	<polygon fill="#FFFFFF" points="126.25,201.25 151.25,201.25 151.25,187.75 360.25,187.75 360.25,324.75 348.75,324.75 
		348.75,348.75 385.25,348.75 385.25,163.75 126.25,163.75 	"/>
	<polygon fill="#FFFFFF" points="167.25,120.75 167.25,158.25 192.25,158.25 192.25,144.75 401.25,144.75 401.25,281.75 
		389.75,281.75 389.75,305.75 426.25,305.75 426.25,120.75 	"/>
</g>
</svg>
