<?xml version="1.0" encoding="UTF-8" standalone="no"?>
<!-- Generator: Adobe Illustrator 14.0.0, SVG Export Plug-In . SVG Version: 6.00 Build 43363)  -->

<svg
   xmlns:dc="http://purl.org/dc/elements/1.1/"
   xmlns:cc="http://creativecommons.org/ns#"
   xmlns:rdf="http://www.w3.org/1999/02/22-rdf-syntax-ns#"
   xmlns:svg="http://www.w3.org/2000/svg"
   xmlns="http://www.w3.org/2000/svg"
   xmlns:sodipodi="http://sodipodi.sourceforge.net/DTD/sodipodi-0.dtd"
   xmlns:inkscape="http://www.inkscape.org/namespaces/inkscape"
   version="1.1"
   id="icon-m-camera-iso-800-layer"
   x="0px"
   y="0px"
   width="32px"
   height="32px"
   viewBox="0 0 32 32"
   style="enable-background:new 0 0 32 32;"
   xml:space="preserve"
   inkscape:version="0.48.3.1 r9886"
   sodipodi:docname="icon-m-camera-iso-800.svg"><metadata
   id="metadata3055"><rdf:RDF><cc:Work
       rdf:about=""><dc:format>image/svg+xml</dc:format><dc:type
         rdf:resource="http://purl.org/dc/dcmitype/StillImage" /></cc:Work></rdf:RDF></metadata><defs
   id="defs3053">
	
	
	
	
	
	
</defs><sodipodi:namedview
   pagecolor="#ffffff"
   bordercolor="#666666"
   borderopacity="1"
   objecttolerance="10"
   gridtolerance="10"
   guidetolerance="10"
   inkscape:pageopacity="0"
   inkscape:pageshadow="2"
   inkscape:window-width="1024"
   inkscape:window-height="686"
   id="namedview3051"
   showgrid="false"
   inkscape:zoom="13.914551"
   inkscape:cx="4.5371794"
   inkscape:cy="16"
   inkscape:window-x="0"
   inkscape:window-y="30"
   inkscape:window-maximized="1"
   inkscape:current-layer="icon-m-camera-iso-800-layer" />
<rect
   y="0"
   x="0"
   id="rect3039"
   height="32"
   width="32"
   style="fill:none" /><g
   id="g3122"
   transform="matrix(1.3322871,0,0,1.3322871,-5.578388,-5.3165936)"><path
     style="fill:#ffffff"
     d="M 7.956,4.944 V 17.493 H 24.045 V 4.944 H 7.956 z m 3.66,2.978 h -0.695 v 6.207 h 0.695 v 1.112 H 8.314 V 14.129 H 9.01 V 7.922 H 8.314 V 6.809 h 3.301 v 1.113 z m 2.247,7.412 c -0.648,0 -1.32,-0.081 -1.946,-0.231 v -1.147 c 0.591,0.15 1.193,0.267 1.818,0.267 0.915,0 1.355,-0.429 1.355,-1.112 0,-0.717 -0.417,-0.984 -1.529,-1.609 -0.949,-0.532 -1.633,-1.17 -1.633,-2.432 0,-1.587 1.204,-2.352 2.872,-2.352 0.591,0 1.182,0.058 1.772,0.174 V 8.015 C 16.039,7.9 15.622,7.829 15.055,7.829 c -0.753,0 -1.205,0.348 -1.205,0.974 0,0.672 0.486,0.984 1.332,1.425 1.123,0.59 1.83,1.263 1.83,2.502 0.002,1.839 -1.261,2.604 -3.149,2.604 z m 6.719,0 c -2.815,0 -3.268,-2.433 -3.268,-4.425 0,-1.98 0.521,-4.192 3.268,-4.192 2.744,0 3.254,2.212 3.254,4.192 0,2.005 -0.44,4.425 -3.254,4.425 z"
     id="path3041"
     inkscape:connector-curvature="0" /><path
     style="fill:#ffffff"
     d="m 20.582,7.828 c -1.193,0 -1.286,1.506 -1.286,3.081 0,1.575 0.139,3.313 1.286,3.313 1.192,0 1.273,-1.714 1.273,-3.313 0,-1.575 -0.115,-3.081 -1.273,-3.081 z"
     id="path3043"
     inkscape:connector-curvature="0" /><path
     style="fill:#ffffff"
     d="m 9.987,18.451 c 1.599,0 2.78,0.718 2.78,2.177 0,0.903 -0.395,1.599 -1.297,1.945 0.996,0.29 1.448,1.136 1.448,2.108 0,1.563 -1.158,2.374 -2.965,2.374 -1.772,0 -2.918,-0.822 -2.918,-2.374 0,-0.962 0.44,-1.842 1.436,-2.108 -0.903,-0.347 -1.286,-1.042 -1.286,-1.945 0,-1.459 1.193,-2.177 2.802,-2.177 z m -0.023,4.667 c -0.753,0 -1.054,0.602 -1.054,1.401 0,0.799 0.266,1.482 1.054,1.482 0.811,0 1.077,-0.648 1.077,-1.482 10e-4,-0.788 -0.358,-1.401 -1.077,-1.401 z m 0,-3.613 c -0.707,0 -0.938,0.579 -0.938,1.297 0,0.706 0.267,1.297 0.938,1.297 0.683,0 0.961,-0.579 0.961,-1.297 10e-4,-0.765 -0.242,-1.297 -0.961,-1.297 z"
     id="path3045"
     inkscape:connector-curvature="0" /><path
     style="fill:#ffffff"
     d="m 16.231,27.056 c -2.629,0 -2.849,-2.235 -2.849,-4.401 0,-1.957 0.313,-4.203 2.896,-4.203 2.548,0 2.826,2.223 2.826,4.203 0,2.189 -0.267,4.401 -2.873,4.401 z m 0,-7.551 c -0.915,0 -0.973,1.228 -0.973,3.149 0,2.236 0.093,3.348 0.973,3.348 0.869,0 0.95,-1.111 0.95,-3.348 0,-1.933 -0.046,-3.149 -0.95,-3.149 z"
     id="path3047"
     inkscape:connector-curvature="0" /><path
     style="fill:#ffffff"
     d="m 22.486,27.056 c -2.629,0 -2.85,-2.235 -2.85,-4.401 0,-1.957 0.313,-4.203 2.896,-4.203 2.548,0 2.826,2.223 2.826,4.203 0,2.189 -0.266,4.401 -2.872,4.401 z m 0,-7.551 c -0.915,0 -0.973,1.228 -0.973,3.149 0,2.236 0.092,3.348 0.973,3.348 0.868,0 0.949,-1.111 0.949,-3.348 0.001,-1.933 -0.045,-3.149 -0.949,-3.149 z"
     id="path3049"
     inkscape:connector-curvature="0" /></g>
</svg>