<?xml version="1.0" encoding="UTF-8" standalone="no"?>
<!-- Generator: Adobe Illustrator 14.0.0, SVG Export Plug-In . SVG Version: 6.00 Build 43363)  -->

<svg
   xmlns:dc="http://purl.org/dc/elements/1.1/"
   xmlns:cc="http://creativecommons.org/ns#"
   xmlns:rdf="http://www.w3.org/1999/02/22-rdf-syntax-ns#"
   xmlns:svg="http://www.w3.org/2000/svg"
   xmlns="http://www.w3.org/2000/svg"
   xmlns:sodipodi="http://sodipodi.sourceforge.net/DTD/sodipodi-0.dtd"
   xmlns:inkscape="http://www.inkscape.org/namespaces/inkscape"
   version="1.1"
   id="icon-m-camera-scene-macro-screen-layer"
   x="0px"
   y="0px"
   width="32px"
   height="32px"
   viewBox="0 0 32 32"
   style="enable-background:new 0 0 32 32;"
   xml:space="preserve"
   inkscape:version="0.48.3.1 r9886"
   sodipodi:docname="icon-m-camera-scene-macro-screen.svg"><metadata
   id="metadata3015"><rdf:RDF><cc:Work
       rdf:about=""><dc:format>image/svg+xml</dc:format><dc:type
         rdf:resource="http://purl.org/dc/dcmitype/StillImage" /></cc:Work></rdf:RDF></metadata><defs
   id="defs3013" /><sodipodi:namedview
   pagecolor="#ffffff"
   bordercolor="#666666"
   borderopacity="1"
   objecttolerance="10"
   gridtolerance="10"
   guidetolerance="10"
   inkscape:pageopacity="0"
   inkscape:pageshadow="2"
   inkscape:window-width="687"
   inkscape:window-height="480"
   id="namedview3011"
   showgrid="false"
   inkscape:zoom="7.375"
   inkscape:cx="16"
   inkscape:cy="16"
   inkscape:window-x="0"
   inkscape:window-y="30"
   inkscape:window-maximized="0"
   inkscape:current-layer="icon-m-camera-scene-macro-screen-layer" />
<g
   id="icon-m-camera-scene-macro-screen"
   transform="matrix(0.93342716,0,0,0.93342716,1.0651654,1.0651654)">
	<rect
   style="fill:none"
   width="32"
   height="32"
   id="rect3007"
   x="0"
   y="0" />
	<path
   style="fill:#ffffff"
   d="m 17.59,29.883 v -4.5 c 0.395,0.595 0.699,0.854 1.154,1.148 1.969,1.266 4.773,1.223 6.977,0.629 4.568,-1.225 5.869,-5.561 5.869,-9.777 -0.859,0.334 -9.338,3.768 -12.924,5.148 -0.441,0.172 -0.701,0.551 -1.076,0.852 v -7 c 3.768,-0.613 6.352,-3.85 6.352,-7.791 0,-1.943 -0.701,-3.723 -1.861,-5.1 l -2.49,6.391 -3.5,-8 -3.5,8 -2.5,-6.5 c -1.152,1.377 -2,3.275 -2,5.209 0,3.941 2.731,7.178 6.5,7.791 v 7 C 14.216,23.061 13.789,22.766 13.334,22.59 9.749,21.209 1.45,17.713 0.591,17.383 c 0,4.22 1.12,8.607 5.688,9.836 2.205,0.592 5.009,0.639 6.979,-0.629 0.469,-0.301 0.937,-0.59 1.333,-1.207 v 4.5 h 2.999 z"
   id="path3009"
   inkscape:connector-curvature="0" />
</g>
</svg>