<?xml version="1.0" encoding="utf-8"?>
<!-- Generator: Adobe Illustrator 16.0.0, SVG Export Plug-In . SVG Version: 6.00 Build 0)  -->
<!DOCTYPE svg PUBLIC "-//W3C//DTD SVG 1.1//EN" "http://www.w3.org/Graphics/SVG/1.1/DTD/svg11.dtd">
<svg version="1.1" id="icon-m-camera-location-layer"
	 xmlns="http://www.w3.org/2000/svg" xmlns:xlink="http://www.w3.org/1999/xlink" x="0px" y="0px" width="32px" height="32px"
	 viewBox="0 0 32 32" enable-background="new 0 0 32 32" xml:space="preserve">
<g>
	<path fill="none" d="M11.926,9.232 M20.094,9.232"/>
	<g>
		<g>
			<path fill="#FFFFFF" d="M15.998,0.818C11.178,0.84,5.925,4.589,7.263,12.398c0.931,8.003,8.814,18.784,8.814,18.784
				s7.283-10.114,8.643-18.864C26.117,4.561,20.821,0.796,15.998,0.818z M16.009,15.367c-3.382,0-6.135-2.751-6.135-6.134
				c0-3.383,2.751-6.136,6.135-6.136c3.383,0,6.136,2.753,6.136,6.136C22.145,12.616,19.392,15.367,16.009,15.367z"/>
			<path fill="#FFFFFF" d="M16.008,5.148c-2.255,0-4.083,1.828-4.083,4.084s1.828,4.084,4.083,4.084
				c2.256,0,4.085-1.829,4.085-4.084S18.265,5.148,16.008,5.148z M16.008,11.141c-1.05,0-1.908-0.856-1.908-1.909
				s0.857-1.909,1.909-1.909s1.911,0.856,1.911,1.91S17.061,11.141,16.008,11.141z"/>
		</g>
	</g>
</g>
</svg>
