<?xml version="1.0" encoding="utf-8"?>
<!-- Generator: Adobe Illustrator 16.0.0, SVG Export Plug-In . SVG Version: 6.00 Build 0)  -->
<!DOCTYPE svg PUBLIC "-//W3C//DTD SVG 1.1//EN" "http://www.w3.org/Graphics/SVG/1.1/DTD/svg11.dtd">
<svg version="1.1" id="icon-m-toolbar-delete-layer"
	 xmlns="http://www.w3.org/2000/svg" xmlns:xlink="http://www.w3.org/1999/xlink" x="0px" y="0px" width="32px" height="32px"
	 viewBox="0 0 32 32" enable-background="new 0 0 32 32" xml:space="preserve">
<g>
	<path fill="#FFFFFF" d="M6.925,10.874L6.924,27.893c0,0.566,0.464,1.032,1.032,1.032h16.345c0.568,0,1.033-0.466,1.033-1.032
		l-0.095-17.019H6.925z"/>
	<path fill="#FFFFFF" d="M25.025,6.088h-4.712v-1.98c0-0.568-0.465-1.033-1.034-1.033h-6.2c-0.568,0-1.033,0.465-1.033,1.033v1.98
		H7.232c-0.569,0-1.291,0.465-1.291,1.033V9.48h20.117V7.123C26.059,6.553,25.594,6.088,25.025,6.088z M18.867,5.836h-5.25V4.399
		h5.25V5.836z"/>
</g>
</svg>
