<?xml version="1.0" encoding="UTF-8" standalone="no"?>
<!-- Generator: Adobe Illustrator 14.0.0, SVG Export Plug-In . SVG Version: 6.00 Build 43363)  -->

<svg
   xmlns:dc="http://purl.org/dc/elements/1.1/"
   xmlns:cc="http://creativecommons.org/ns#"
   xmlns:rdf="http://www.w3.org/1999/02/22-rdf-syntax-ns#"
   xmlns:svg="http://www.w3.org/2000/svg"
   xmlns="http://www.w3.org/2000/svg"
   xmlns:sodipodi="http://sodipodi.sourceforge.net/DTD/sodipodi-0.dtd"
   xmlns:inkscape="http://www.inkscape.org/namespaces/inkscape"
   version="1.1"
   id="icon-m-camera-iso-auto-layer"
   x="0px"
   y="0px"
   width="32px"
   height="32px"
   viewBox="0 0 32 32"
   style="enable-background:new 0 0 32 32;"
   xml:space="preserve"
   inkscape:version="0.48.3.1 r9886"
   sodipodi:docname="icon-m-camera-iso-auto.svg"><metadata
   id="metadata22"><rdf:RDF><cc:Work
       rdf:about=""><dc:format>image/svg+xml</dc:format><dc:type
         rdf:resource="http://purl.org/dc/dcmitype/StillImage" /></cc:Work></rdf:RDF></metadata><defs
   id="defs20">
	
	
	
	
	
	
	
</defs><sodipodi:namedview
   pagecolor="#ffffff"
   bordercolor="#666666"
   borderopacity="1"
   objecttolerance="10"
   gridtolerance="10"
   guidetolerance="10"
   inkscape:pageopacity="0"
   inkscape:pageshadow="2"
   inkscape:window-width="1024"
   inkscape:window-height="686"
   id="namedview18"
   showgrid="false"
   inkscape:zoom="13.914551"
   inkscape:cx="4.5371794"
   inkscape:cy="16"
   inkscape:window-x="0"
   inkscape:window-y="30"
   inkscape:window-maximized="1"
   inkscape:current-layer="icon-m-camera-iso-auto-layer" />
<rect
   y="0"
   x="0"
   id="rect4"
   height="32"
   width="32"
   style="fill:none" /><g
   id="g3020"
   transform="matrix(1.2378257,0,0,1.2378257,-3.6325344,-1.0411312)"><path
     style="fill:#ffffff"
     d="M 11.325839,25.738538 H 9.6581835 L 9.3151823,24.29955 H 7.429253 l -0.3533952,1.438988 h -1.42051 l 1.9436735,-6.937401 h 1.9067172 l 1.8201005,6.937401 z M 9.124626,23.38488 8.3820342,20.125791 7.6198093,23.38488 H 9.124626 z"
     id="path6"
     inkscape:connector-curvature="0" /><path
     style="fill:#ffffff"
     d="M 15.432615,24.918569 C 15.002997,25.538743 14.470594,25.824 13.736087,25.824 c -1.181449,0 -1.771596,-0.666369 -1.771596,-1.801623 v -3.754535 h 1.533689 v 3.61133 c 0,0.562429 0.08546,1.030158 0.65713,1.030158 0.724114,0 0.896192,-0.724114 0.896192,-1.372005 v -3.268328 h 1.534844 v 5.469541 h -0.934303 l -0.219428,-0.819969 z"
     id="path8"
     inkscape:connector-curvature="0" /><path
     style="fill:#ffffff"
     d="m 20.767034,25.624205 c -0.437702,0.114333 -0.952781,0.190556 -1.400877,0.190556 -0.904276,0 -1.419355,-0.362634 -1.419355,-1.306176 v -3.40114 h -0.666369 v -0.51508 l 1.563716,-1.5718 h 0.638652 v 1.248432 h 1.199926 v 0.839602 h -1.199926 v 3.182867 c 0,0.428463 0.06698,0.65713 0.504685,0.65713 0.286412,0 0.543951,-0.05774 0.781858,-0.123573 v 0.799182 z"
     id="path10"
     inkscape:connector-curvature="0" /><path
     style="fill:#ffffff"
     d="m 23.559549,25.814761 c -1.857057,0 -2.496864,-1.277304 -2.496864,-2.89761 0,-1.600672 0.868475,-2.724376 2.516497,-2.724376 1.705767,0 2.48647,1.132943 2.48647,2.763642 0,1.704613 -0.789942,2.858344 -2.506103,2.858344 z m 0,-4.783539 c -0.847686,0 -0.91467,1.048637 -0.91467,1.858212 0,0.818814 0.03811,2.08688 0.91467,2.08688 0.877714,0 0.925064,-1.12486 0.925064,-2.08688 0,-0.752986 -0.114334,-1.858212 -0.925064,-1.858212 z"
     id="path12"
     inkscape:connector-curvature="0" /><path
     style="fill:#ffffff"
     d="M 6.7317017,1.7099754 V 16.202643 H 25.312666 V 1.7099754 H 6.7317017 z m 4.2268833,3.4392512 h -0.802646 v 7.1683784 h 0.802646 v 1.284234 H 7.145151 V 12.317605 H 7.9489518 V 5.1492266 H 7.145151 V 3.8638382 h 3.812279 v 1.2853884 z m 2.59503,8.5600164 c -0.748367,0 -1.52445,-0.09355 -2.247409,-0.266778 V 12.11781 c 0.682538,0.173233 1.377779,0.308355 2.099583,0.308355 1.056721,0 1.564871,-0.495446 1.564871,-1.284234 0,-0.828053 -0.481587,-1.136408 -1.765821,-1.8582117 C 12.108852,8.6693198 11.31891,7.9325024 11.31891,6.475036 c 0,-1.8328045 1.390483,-2.7162924 3.316833,-2.7162924 0.682538,0 1.365076,0.066983 2.046459,0.2009502 V 5.256631 C 16.066647,5.1238191 15.58506,5.0418222 14.930239,5.0418222 c -0.869629,0 -1.391638,0.4019004 -1.391638,1.1248592 0,0.7760835 0.561275,1.136408 1.538309,1.6457128 1.296937,0.6813829 2.113442,1.4586214 2.113442,2.8895258 0.0023,2.123835 -1.456312,3.007323 -3.636737,3.007323 z m 7.75968,0 c -3.251004,0 -3.774168,-2.809838 -3.774168,-5.1103712 0,-2.2866748 0.601696,-4.8412831 3.774168,-4.8412831 3.169008,0 3.758,2.5546083 3.758,4.8412831 0,2.3155472 -0.50815,5.1103712 -3.758,5.1103712 z"
     id="path14"
     inkscape:connector-curvature="0" /><path
     style="fill:#ffffff"
     d="m 21.313295,5.0406673 c -1.377779,0 -1.485183,1.7392586 -1.485183,3.5582045 0,1.8189462 0.160529,3.8261382 1.485183,3.8261382 1.376625,0 1.470171,-1.979475 1.470171,-3.8261382 0,-1.8189459 -0.132812,-3.5582045 -1.470171,-3.5582045 z"
     id="path16"
     inkscape:connector-curvature="0" /></g>
</svg>