<?xml version="1.0" encoding="UTF-8" standalone="no"?>
<!-- Generator: Adobe Illustrator 14.0.0, SVG Export Plug-In . SVG Version: 6.00 Build 43363)  -->

<svg
   xmlns:dc="http://purl.org/dc/elements/1.1/"
   xmlns:cc="http://creativecommons.org/ns#"
   xmlns:rdf="http://www.w3.org/1999/02/22-rdf-syntax-ns#"
   xmlns:svg="http://www.w3.org/2000/svg"
   xmlns="http://www.w3.org/2000/svg"
   xmlns:sodipodi="http://sodipodi.sourceforge.net/DTD/sodipodi-0.dtd"
   xmlns:inkscape="http://www.inkscape.org/namespaces/inkscape"
   version="1.1"
   id="icon-m-viewfinder-camera-layer"
   x="0px"
   y="0px"
   width="32px"
   height="32px"
   viewBox="0 0 32 32"
   style="enable-background:new 0 0 32 32;"
   xml:space="preserve"
   inkscape:version="0.48.3.1 r9886"
   sodipodi:docname="icon-m-viewfinder-camera.svg"><metadata
   id="metadata2999"><rdf:RDF><cc:Work
       rdf:about=""><dc:format>image/svg+xml</dc:format><dc:type
         rdf:resource="http://purl.org/dc/dcmitype/StillImage" /></cc:Work></rdf:RDF></metadata><defs
   id="defs2997" /><sodipodi:namedview
   pagecolor="#ffffff"
   bordercolor="#666666"
   borderopacity="1"
   objecttolerance="10"
   gridtolerance="10"
   guidetolerance="10"
   inkscape:pageopacity="0"
   inkscape:pageshadow="2"
   inkscape:window-width="1024"
   inkscape:window-height="686"
   id="namedview2995"
   showgrid="false"
   inkscape:zoom="13.914551"
   inkscape:cx="4.5371794"
   inkscape:cy="16"
   inkscape:window-x="0"
   inkscape:window-y="30"
   inkscape:window-maximized="1"
   inkscape:current-layer="icon-m-viewfinder-camera-layer" />
<g
   id="icon-m-viewfinder-camera"
   transform="matrix(0.95732884,0,0,0.95732884,0.68273856,0.68273856)">
	<rect
   style="fill:none"
   width="32"
   height="32"
   id="rect2991"
   x="0"
   y="0" />
	<path
   style="fill:#ffffff"
   d="M 30.4,4.783 H 1.6 C 0.723,4.783 0,5.505 0,6.385 v 19.229 c 0,0.881 0.723,1.604 1.6,1.604 h 28.8 c 0.877,0 1.6,-0.723 1.6,-1.604 V 6.385 C 32,5.505 31.277,4.783 30.4,4.783 z M 16,23.5 c -3.976,0 -7.201,-3.233 -7.201,-7.212 0,-3.982 3.225,-7.21 7.201,-7.21 3.978,0 7.199,3.228 7.199,7.21 0,3.98 -3.221,7.212 -7.199,7.212 z M 29.953,10.998 H 23.76 v -4.15 h 6.193 v 4.15 z"
   id="path2993"
   inkscape:connector-curvature="0" />
</g>
</svg>