<?xml version="1.0" encoding="utf-8"?>
<!-- Generator: Adobe Illustrator 16.0.0, SVG Export Plug-In . SVG Version: 6.00 Build 0)  -->
<!DOCTYPE svg PUBLIC "-//W3C//DTD SVG 1.1//EN" "http://www.w3.org/Graphics/SVG/1.1/DTD/svg11.dtd">
<svg version="1.1" id="icon-m-camera-video-night-screen-layer"
	 xmlns="http://www.w3.org/2000/svg" xmlns:xlink="http://www.w3.org/1999/xlink" x="0px" y="0px" width="32px" height="32px"
	 viewBox="0 0 32 32" enable-background="new 0 0 32 32" xml:space="preserve">
<g id="icon-m-camera-video-night-screen">
	<polyline fill="none" points="0,32 0,0 32,0 	"/>
	<path fill="#FFFFFF" d="M29.848,0.74c0.571,0,1.125,0.078,1.649,0.223c-2.649,0.723-4.506,3.146-4.506,6.027
		c0,2.879,1.856,5.303,4.506,6.027c-0.524,0.145-1.078,0.223-1.649,0.223c-3.451,0-6.188-2.799-6.188-6.25
		C23.659,3.539,26.396,0.74,29.848,0.74z"/>
</g>
<path fill="#FFFFFF" d="M20.721,16c0.715,0,1.293,0.579,1.293,1.294v10.35c0,0.715-0.578,1.294-1.293,1.294H7.136
	c-0.715,0-1.294-0.579-1.294-1.294v-10.35C5.842,16.579,6.421,16,7.136,16H20.721z"/>
<polygon fill="#FFFFFF" points="27.118,27.18 22.906,25.196 22.906,19.741 27.118,17.758 "/>
</svg>
