<?xml version="1.0" encoding="utf-8"?>
<!-- Generator: Adobe Illustrator 16.0.0, SVG Export Plug-In . SVG Version: 6.00 Build 0)  -->
<!DOCTYPE svg PUBLIC "-//W3C//DTD SVG 1.1//EN" "http://www.w3.org/Graphics/SVG/1.1/DTD/svg11.dtd">
<svg version="1.1" id="icon-m-toolbar-delete-layer"
	 xmlns="http://www.w3.org/2000/svg" xmlns:xlink="http://www.w3.org/1999/xlink" x="0px" y="0px" width="32px" height="32px"
	 viewBox="0 0 32 32" enable-background="new 0 0 32 32" xml:space="preserve">
<path fill="#FFFFFF" d="M7.021,11.15L7.02,29.168c0,0.566,0.464,1.032,1.032,1.032h16.345c0.568,0,1.033-0.466,1.033-1.032
	L25.335,11.15H7.021z"/>
<path fill="#FFFFFF" d="M23.846,4.814h-3.712v-1.98c0-0.568-0.465-1.033-1.034-1.033h-6.2c-0.569,0-1.034,0.465-1.034,1.033v1.98
	H8.053c-0.569,0-1.033,0.465-1.033,1.033v3.359h17.859V5.848C24.879,5.279,24.414,4.814,23.846,4.814z M18.688,4.562h-5.25V3.125
	h5.25V4.562z"/>
</svg>
