<?xml version="1.0" encoding="UTF-8" standalone="no"?>
<!-- Generator: Adobe Illustrator 14.0.0, SVG Export Plug-In . SVG Version: 6.00 Build 43363)  -->

<svg
   xmlns:dc="http://purl.org/dc/elements/1.1/"
   xmlns:cc="http://creativecommons.org/ns#"
   xmlns:rdf="http://www.w3.org/1999/02/22-rdf-syntax-ns#"
   xmlns:svg="http://www.w3.org/2000/svg"
   xmlns="http://www.w3.org/2000/svg"
   xmlns:sodipodi="http://sodipodi.sourceforge.net/DTD/sodipodi-0.dtd"
   xmlns:inkscape="http://www.inkscape.org/namespaces/inkscape"
   version="1.1"
   id="icon-m-camera-postcapture-view-5sec-layer"
   x="0px"
   y="0px"
   width="48px"
   height="48px"
   viewBox="0 0 48 48"
   style="enable-background:new 0 0 48 48;"
   xml:space="preserve"
   inkscape:version="0.48.4 r9939"
   sodipodi:docname="icon-m-camera-postcapture-view-5sec.svg"><metadata
     id="metadata22"><rdf:RDF><cc:Work
         rdf:about=""><dc:format>image/svg+xml</dc:format><dc:type
           rdf:resource="http://purl.org/dc/dcmitype/StillImage" /></cc:Work></rdf:RDF></metadata><defs
     id="defs20" /><sodipodi:namedview
     pagecolor="#ffffff"
     bordercolor="#666666"
     borderopacity="1"
     objecttolerance="10"
     gridtolerance="10"
     guidetolerance="10"
     inkscape:pageopacity="0"
     inkscape:pageshadow="2"
     inkscape:window-width="1024"
     inkscape:window-height="686"
     id="namedview18"
     showgrid="false"
     inkscape:zoom="9.1995443"
     inkscape:cx="8.8362054"
     inkscape:cy="24"
     inkscape:window-x="0"
     inkscape:window-y="30"
     inkscape:window-maximized="1"
     inkscape:current-layer="icon-m-camera-postcapture-view-5sec-layer" /><rect
     y="0"
     x="0"
     id="rect4"
     height="48"
     width="48"
     style="fill:none" /><g
     id="g3006"
     style="fill:#ffffff;fill-opacity:1"
     transform="translate(-10.038,-7.6965)"><path
       style="fill:#ffffff;fill-opacity:1"
       d="m 35.25,21.163 v -2.021 h 2.25 v -3 h -6.75 v 3 H 33 v 2.018 c -6.607,0.651 -12.04,6.237 -12.04,13.013 0,7.211 5.866,13.078 13.078,13.078 7.21,0 13.078,-5.867 13.078,-13.078 0,-6.76 -5.282,-12.337 -11.866,-13.01 z m -1.212,22.351 c -5.15,0 -9.342,-4.189 -9.342,-9.342 0,-5.149 4.192,-9.342 9.342,-9.342 5.149,0 9.341,4.192 9.341,9.342 0,5.152 -4.191,9.342 -9.341,9.342 z"
       id="path14"
       inkscape:connector-curvature="0" /><path
       style="fill:#ffffff;fill-opacity:1"
       d="m 35.25,21.163 v -2.021 h 2.25 v -3 h -6.75 v 3 H 33 v 2.018 c -6.607,0.651 -12.04,6.237 -12.04,13.013 0,7.211 5.866,13.078 13.078,13.078 7.21,0 13.078,-5.867 13.078,-13.078 0,-6.76 -5.282,-12.337 -11.866,-13.01 z m -1.212,22.351 c -5.15,0 -9.342,-4.189 -9.342,-9.342 0,-5.149 4.192,-9.342 9.342,-9.342 5.149,0 9.341,4.192 9.341,9.342 0,5.152 -4.191,9.342 -9.341,9.342 z"
       id="path16"
       inkscape:connector-curvature="0" /></g></svg>