<?xml version="1.0" encoding="utf-8"?>
<!-- Generator: Adobe Illustrator 16.0.0, SVG Export Plug-In . SVG Version: 6.00 Build 0)  -->
<!DOCTYPE svg PUBLIC "-//W3C//DTD SVG 1.1//EN" "http://www.w3.org/Graphics/SVG/1.1/DTD/svg11.dtd">
<svg version="1.1" id="Layer_1" xmlns="http://www.w3.org/2000/svg" xmlns:xlink="http://www.w3.org/1999/xlink" x="0px" y="0px"
	 width="48px" height="48px" viewBox="0 0 48 48" enable-background="new 0 0 48 48" xml:space="preserve">
<g>
	<path fill="#0777BE" d="M30.214,13.741"/>
	<g>
		<g>
			<path fill="#FFFFFF" d="M24.006,0.987C16.7,1.021,8.737,6.704,10.766,18.541c1.411,12.129,13.36,28.471,13.36,28.471
				s11.038-15.329,13.102-28.593C39.345,6.661,31.315,0.954,24.006,0.987z M24.022,23.041c-5.125,0-9.299-4.17-9.299-9.298
				c0-5.127,4.17-9.3,9.299-9.3c5.129,0,9.3,4.173,9.3,9.3C33.322,18.871,29.151,23.041,24.022,23.041z"/>
			<path fill="#0777BE" d="M24.021,7.551c-3.418,0-6.188,2.771-6.188,6.19s2.771,6.191,6.188,6.191c3.42,0,6.192-2.773,6.192-6.191
				S27.443,7.551,24.021,7.551z M24.021,16.635c-1.591,0-2.892-1.297-2.892-2.894c0-1.596,1.299-2.893,2.893-2.893
				s2.897,1.297,2.897,2.895C26.919,15.34,25.616,16.635,24.021,16.635z"/>
		</g>
	</g>
</g>
</svg>
