<?xml version="1.0" encoding="utf-8"?>
<!-- Generator: Adobe Illustrator 16.0.0, SVG Export Plug-In . SVG Version: 6.00 Build 0)  -->
<!DOCTYPE svg PUBLIC "-//W3C//DTD SVG 1.1//EN" "http://www.w3.org/Graphics/SVG/1.1/DTD/svg11.dtd">
<svg version="1.1"
	 id="icon-m-camera-flash-red-eye-screen-layer" xmlns:dc="http://purl.org/dc/elements/1.1/" xmlns:cc="http://creativecommons.org/ns#" xmlns:rdf="http://www.w3.org/1999/02/22-rdf-syntax-ns#" xmlns:svg="http://www.w3.org/2000/svg" xmlns:sodipodi="http://sodipodi.sourceforge.net/DTD/sodipodi-0.dtd" xmlns:inkscape="http://www.inkscape.org/namespaces/inkscape" inkscape:version="0.48.3.1 r9886" sodipodi:docname="icon-m-camera-flash-red-eye-screen.svg"
	 xmlns="http://www.w3.org/2000/svg" xmlns:xlink="http://www.w3.org/1999/xlink" x="0px" y="0px" width="48px" height="48px"
	 viewBox="0 0 48 48" enable-background="new 0 0 48 48" xml:space="preserve">
<sodipodi:namedview  showgrid="false" inkscape:cy="24.130847" inkscape:cx="23.860606" inkscape:zoom="9.8390732" borderopacity="1" bordercolor="#666666" pagecolor="#ffffff" id="namedview3027" inkscape:current-layer="icon-m-camera-flash-red-eye-screen-layer" inkscape:pageshadow="2" inkscape:pageopacity="0" inkscape:window-maximized="1" inkscape:window-y="30" inkscape:window-x="0" inkscape:window-height="686" inkscape:window-width="1024" objecttolerance="10" guidetolerance="10" gridtolerance="10">
	</sodipodi:namedview>
<g id="icon-m-camera-flash-red-eye-screen" transform="matrix(1.2509129,0,0,1.2509129,3.9853936,3.9853936)">
	<rect id="rect3019" x="0" y="0" fill="none" width="32" height="32"/>
	<path id="path3021" inkscape:connector-curvature="0" fill="#FFFFFF" d="M28.475,8.996l0.012-0.032l-0.145-0.217h-0.025
		c-0.056-0.058-0.142-0.146-0.234-0.247c-0.264-0.282-6.572-6.942-13.587-6.942c-7.018,0-13.324,6.66-13.59,6.944
		c-0.165,0.176-0.303,0.32-0.303,0.32L0.489,8.937l0.043,0.104v0.071L0.6,9.182c0,0.001,0.141,0.144,0.304,0.317
		c0.266,0.285,6.572,6.945,13.59,6.945c7.016,0,13.323-6.66,13.587-6.943l0.235-0.248h0.03l0.142-0.225L28.475,8.996z M4.609,8.914
		C4.657,8.861,9.417,3.84,14.495,3.84c5.078,0,9.835,5.021,9.883,5.074L24.461,9c-0.025,0.028-0.053,0.059-0.082,0.088
		c-0.049,0.051-4.804,5.075-9.884,5.075c-5.079,0-9.838-5.024-9.885-5.072L4.527,9C4.553,8.974,4.581,8.943,4.609,8.914z"/>
	<path id="path3025" inkscape:connector-curvature="0" fill="#FFFFFF" d="M27.545,18h-3.131l-4.028,13.498h2.273l0.896-3.095h4.515
		l0.896,3.095H31.5L27.545,18z M23.988,26.693l1.844-6.67l1.827,6.699L23.988,26.693z"/>
</g>
<circle fill="#FF0000" cx="22.526" cy="15.245" r="4.25"/>
</svg>
