<?xml version="1.0" encoding="utf-8"?>
<!-- Generator: Adobe Illustrator 16.0.0, SVG Export Plug-In . SVG Version: 6.00 Build 0)  -->
<!DOCTYPE svg PUBLIC "-//W3C//DTD SVG 1.1//EN" "http://www.w3.org/Graphics/SVG/1.1/DTD/svg11.dtd">
<svg version="1.1" id="Layer_1" xmlns="http://www.w3.org/2000/svg" xmlns:xlink="http://www.w3.org/1999/xlink" x="0px" y="0px"
	 width="512px" height="512px" viewBox="0 0 512 512" enable-background="new 0 0 512 512" xml:space="preserve">
<path fill="#FFFFFF" stroke="#000000" stroke-miterlimit="10" d="M445.75,205.5h-87.5c0,10.291,1.065,20.325-1,30h60.5
	c2.762,0,5,2.238,5,5v162c0,2.762-2.238,5-5,5h-195.5c-2.761,0-5-2.238-5-5v-30.025c-0.667,0.01-1.332-1.475-2-1.475
	c-8.879,0-17.568,1.549-26,0v61.5c0,2.762,2.239,5,5,5h251.5c2.762,0,5-2.238,5-5v-222C450.75,207.738,448.512,205.5,445.75,205.5z"
	/>
<path fill="#FFFFFF" stroke="#000000" stroke-miterlimit="10" d="M347.25,216.5c0-78.977-64.023-143-143-143
	c-78.977,0-143,64.023-143,143c0,78.977,64.023,143,143,143C283.227,359.5,347.25,295.477,347.25,216.5z M92.25,216.5
	c0-61.856,50.144-112,112-112c61.855,0,112,50.144,112,112c0,61.855-50.145,112-112,112C142.394,328.5,92.25,278.355,92.25,216.5z"
	/>
<path fill="#FFFFFF" stroke="#000000" stroke-miterlimit="10" d="M174.479,369.148c0,0-13.367-3.229-28.001-8.148
	c-14.634-4.92-23.546-14-23.546-14c-1.758,0-3.182,1.128-3.182,2.52v56.916c0,1.393,1.424,2.521,3.182,2.521l51.547-30.233
	c1.758,0,3.182-1.128,3.182-2.52v-4.534C177.661,370.275,176.237,369.148,174.479,369.148z"/>
<g>
	<path fill="#FFFFFF" stroke="#000000" stroke-width="0.7069" stroke-miterlimit="10" d="M139.073,204.86
		c5.28-23.193,20.732-40.501,41.427-50.997l-12-31.94c-32.87,12.432-57.565,41.5-63.801,76.937L139.073,204.86z"/>
</g>
</svg>
