<?xml version="1.0" encoding="utf-8"?>
<!-- Generator: Adobe Illustrator 16.0.0, SVG Export Plug-In . SVG Version: 6.00 Build 0)  -->
<!DOCTYPE svg PUBLIC "-//W3C//DTD SVG 1.1//EN" "http://www.w3.org/Graphics/SVG/1.1/DTD/svg11.dtd">
<svg version="1.1" id="Layer_1" xmlns="http://www.w3.org/2000/svg" xmlns:xlink="http://www.w3.org/1999/xlink" x="0px" y="0px"
	 width="512px" height="512px" viewBox="0 0 512 512" enable-background="new 0 0 512 512" xml:space="preserve">
<path fill="#FFFFFF" stroke="#969595" stroke-miterlimit="10" d="M397.877,270.347l-0.86,2.364
	c0.643-5.483,0.983-11.058,0.983-16.712c0-6.066-0.383-12.044-1.121-17.911l44.336-29.944l-13.338-36.648l-53.309,5.57l0.641,1.76
	c-6.258-9.646-13.654-18.483-22-26.324l14.574-50.943l-33.775-19.5l-36.771,38.031c-10.598-3.211-21.717-5.218-33.201-5.857
	l-21.016-47.123l-38.408,6.771l-3.609,51.168c-11.026,4.638-21.34,10.628-30.741,17.762L125.3,120.914l-25.069,29.875l29.359,40.462
	c-5.556,10.825-9.753,22.461-12.388,34.678l-21.494,5.374l-25.999,6.498v0.002h-0.001v38.999l48.114,12.028
	c2.895,12.226,7.363,23.84,13.189,34.614l-28.755,39.632l25.068,29.875l45.256-22.038c9.687,7.045,20.294,12.898,31.615,17.337
	l3.519,49.871l38.407,6.771l21.109-47.334c11.676-0.912,22.953-3.242,33.664-6.809l35.844,37.07l33.774-19.5l-14.688-51.342
	c7.752-7.664,14.623-16.215,20.455-25.486l52.674,5.502l13.338-36.646L397.877,270.347z M256,345.599
	c-49.484,0-89.6-40.115-89.6-89.6s40.115-89.6,89.6-89.6c49.484,0,89.6,40.116,89.6,89.6C345.6,305.483,305.484,345.599,256,345.599
	z"/>
<circle fill="none" stroke="#969595" stroke-miterlimit="10" cx="256" cy="256" r="100.978"/>
</svg>
