<?xml version="1.0" encoding="utf-8"?>
<!-- Generator: Adobe Illustrator 16.0.0, SVG Export Plug-In . SVG Version: 6.00 Build 0)  -->
<!DOCTYPE svg PUBLIC "-//W3C//DTD SVG 1.1//EN" "http://www.w3.org/Graphics/SVG/1.1/DTD/svg11.dtd">
<svg version="1.1" id="Layer_1" xmlns="http://www.w3.org/2000/svg" xmlns:xlink="http://www.w3.org/1999/xlink" x="0px" y="0px"
	 width="512px" height="512px" viewBox="0 0 512 512" enable-background="new 0 0 512 512" xml:space="preserve">
<path fill="#FFFFFF" d="M397.877,270.347l-0.86,2.365C397.659,267.229,398,261.655,398,256c0-6.067-0.383-12.044-1.121-17.911
	l44.336-29.945l-13.338-36.648l-53.309,5.57l0.641,1.76c-6.258-9.646-13.654-18.483-22-26.324l14.574-50.944l-33.775-19.5
	l-36.772,38.032c-10.597-3.211-21.716-5.218-33.201-5.858l-21.016-47.123l-38.408,6.771l-3.609,51.168
	c-11.026,4.637-21.34,10.628-30.741,17.761l-44.961-21.894l-25.069,29.875l29.359,40.462c-5.556,10.825-9.753,22.461-12.388,34.677
	l-21.494,5.374l-25.999,6.499v0.001h-0.001v39l48.114,12.028c2.895,12.225,7.363,23.84,13.189,34.614l-28.755,39.632l25.068,29.875
	l45.256-22.038c9.687,7.045,20.294,12.899,31.615,17.337l3.519,49.871l38.407,6.771l21.109-47.334
	c11.676-0.913,22.953-3.242,33.664-6.809l35.844,37.07l33.775-19.5l-14.688-51.342c7.752-7.664,14.623-16.215,20.455-25.486
	l52.674,5.502l13.338-36.646L397.877,270.347z M256,345.6c-49.484,0-89.6-40.115-89.6-89.6s40.115-89.6,89.6-89.6
	s89.6,40.116,89.6,89.6S305.484,345.6,256,345.6z"/>
</svg>
