<?xml version="1.0" encoding="UTF-8" standalone="no"?>
<!-- Created with Inkscape (http://www.inkscape.org/) -->

<svg
   xmlns:dc="http://purl.org/dc/elements/1.1/"
   xmlns:cc="http://creativecommons.org/ns#"
   xmlns:rdf="http://www.w3.org/1999/02/22-rdf-syntax-ns#"
   xmlns:svg="http://www.w3.org/2000/svg"
   xmlns="http://www.w3.org/2000/svg"
   xmlns:sodipodi="http://sodipodi.sourceforge.net/DTD/sodipodi-0.dtd"
   xmlns:inkscape="http://www.inkscape.org/namespaces/inkscape"
   width="64px"
   height="64px"
   id="svg3011"
   version="1.1"
   inkscape:version="0.48.4 r9939"
   sodipodi:docname="switch-camera.svg">
  <defs
     id="defs3013" />
  <sodipodi:namedview
     id="base"
     pagecolor="#ffffff"
     bordercolor="#666666"
     borderopacity="1.0"
     inkscape:pageopacity="0.0"
     inkscape:pageshadow="2"
     inkscape:zoom="4.8138637"
     inkscape:cx="44.928444"
     inkscape:cy="34.924059"
     inkscape:current-layer="layer1"
     showgrid="true"
     inkscape:document-units="px"
     inkscape:grid-bbox="true"
     inkscape:window-width="1024"
     inkscape:window-height="686"
     inkscape:window-x="0"
     inkscape:window-y="30"
     inkscape:window-maximized="1" />
  <metadata
     id="metadata3016">
    <rdf:RDF>
      <cc:Work
         rdf:about="">
        <dc:format>image/svg+xml</dc:format>
        <dc:type
           rdf:resource="http://purl.org/dc/dcmitype/StillImage" />
        <dc:title />
      </cc:Work>
    </rdf:RDF>
  </metadata>
  <g
     id="layer1"
     inkscape:label="Layer 1"
     inkscape:groupmode="layer">
    <g
       id="g3740"
       transform="matrix(1.6210726,0.02255406,-0.02255406,1.6210726,-19.152593,-16.596053)"
       style="stroke:#ffffff;stroke-width:1.35699487;stroke-miterlimit:4;stroke-opacity:1;stroke-dasharray:none">
      <rect
         y="-7.5200263e-16"
         x="0"
         height="64"
         width="64"
         id="rect3639"
         style="opacity:0;color:#000000;fill:#505050;fill-opacity:1;fill-rule:nonzero;stroke:#ffffff;stroke-width:1.35699487;stroke-miterlimit:4;stroke-opacity:1;stroke-dasharray:none;marker:none;visibility:visible;display:inline;overflow:visible;enable-background:accumulate" />
      <g
         style="fill:#505050;fill-opacity:1;stroke:#ffffff;stroke-width:1.35699487;stroke-miterlimit:4;stroke-opacity:1;stroke-dasharray:none"
         id="g3610">
        <g
           style="fill:#505050;fill-opacity:1;stroke:#ffffff;stroke-width:1.35699487;stroke-miterlimit:4;stroke-opacity:1;stroke-dasharray:none"
           id="icon-m-settings-battery">
          <rect
             style="opacity:0;fill:#505050;fill-opacity:1;stroke:#ffffff;stroke-width:1.35699487;stroke-miterlimit:4;stroke-opacity:1;stroke-dasharray:none"
             width="64"
             height="64"
             id="rect4"
             x="0"
             y="0" />
          <g
             style="fill:#505050;fill-opacity:1;stroke:#ffffff;stroke-width:1.35699487;stroke-miterlimit:4;stroke-opacity:1;stroke-dasharray:none"
             id="g6" />
        </g>
      </g>
      <g
         transform="matrix(0.03467809,-0.83716069,0.83716069,0.03467809,3.9213615,54.372446)"
         id="g3736"
         style="stroke:#ffffff;stroke-width:1.61956012;stroke-miterlimit:4;stroke-opacity:1;stroke-dasharray:none">
        <path
           inkscape:connector-curvature="0"
           style="color:#000000;fill:none;stroke:#ffffff;stroke-width:1.61956012;stroke-linecap:round;stroke-linejoin:round;stroke-miterlimit:4;stroke-opacity:1;stroke-dasharray:none;marker:none;visibility:visible;display:inline;overflow:visible;enable-background:accumulate"
           d="m 14.728527,41.365976 c 3.308294,6.276588 9.911769,10.53125 17.5,10.53125 10.90913,0 19.75,-8.84087 19.75,-19.75 0,-10.90913 -8.84087,-19.75 -19.75,-19.75 -7.972797,0 -14.848313,4.729978 -17.96875,11.53125"
           id="path3725"
           sodipodi:nodetypes="csscc" />
        <path
           inkscape:connector-curvature="0"
           style="fill:none;stroke:#ffffff;stroke-width:1.61956012;stroke-linecap:round;stroke-linejoin:round;stroke-miterlimit:4;stroke-opacity:1;stroke-dasharray:none"
           d="M 13.236363,9.4254546 14.050909,23.06909 26.676363,22.458181"
           id="path3730" />
      </g>
    </g>
    <g
       id="icon-m-viewfinder-camera"
       transform="matrix(0.98779022,0,0,0.98779022,16.195356,8.195356)">
      <rect
         style="fill:none"
         width="32"
         height="32"
         id="rect2991"
         x="0"
         y="0" />
      <path
         style="fill:#ffffff"
         d="M 30.4,4.783 H 1.6 C 0.723,4.783 0,5.505 0,6.385 v 19.229 c 0,0.881 0.723,1.604 1.6,1.604 h 28.8 c 0.877,0 1.6,-0.723 1.6,-1.604 V 6.385 C 32,5.505 31.277,4.783 30.4,4.783 z M 16,23.5 c -3.976,0 -7.201,-3.233 -7.201,-7.212 0,-3.982 3.225,-7.21 7.201,-7.21 3.978,0 7.199,3.228 7.199,7.21 0,3.98 -3.221,7.212 -7.199,7.212 z M 29.953,10.998 H 23.76 v -4.15 h 6.193 v 4.15 z"
         id="path2993"
         inkscape:connector-curvature="0" />
    </g>
  </g>
</svg>
