<?xml version="1.0" encoding="utf-8"?>
<!-- Generator: Adobe Illustrator 16.0.0, SVG Export Plug-In . SVG Version: 6.00 Build 0)  -->
<!DOCTYPE svg PUBLIC "-//W3C//DTD SVG 1.1//EN" "http://www.w3.org/Graphics/SVG/1.1/DTD/svg11.dtd">
<svg version="1.1" id="Layer_1" xmlns="http://www.w3.org/2000/svg" xmlns:xlink="http://www.w3.org/1999/xlink" x="0px" y="0px"
	 width="512px" height="512px" viewBox="0 0 512 512" enable-background="new 0 0 512 512" xml:space="preserve">
<path fill="#FFFFFF" stroke="#000000" stroke-width="1.6345" stroke-miterlimit="10" d="M471,117.841H41
	c-4.255,0-7.706,3.882-7.706,8.667v258.984c0,4.787,3.451,8.667,7.706,8.667h430c4.257,0,7.706-3.88,7.706-8.667V126.508
	C478.706,121.723,475.257,117.841,471,117.841z M410.588,159.418c-3.266,0-5.914-2.979-5.914-6.651v-12.607
	c0-3.674,2.648-6.651,5.914-6.651h41.35c3.266,0,5.915,2.978,5.915,6.651v12.607c0,3.673-2.649,6.651-5.915,6.651H410.588z
	 M226.5,377.159v-16.777C180.434,348.045,144,306.038,144,256.08c0-50.682,30.414-91.282,77.5-102.921l7,24.114
	c-33.066,10.938-59.5,42.121-59.5,78.807c0,35.939,25.477,66.584,57.5,78.101v-18.021l51,30.921L226.5,377.159z M289.5,358.159
	l-6-24.036c33.066-10.938,59.5-42.12,59.5-78.806c0-35.939-25.477-66.584-57.5-78.101v17.942l-51-30.842l51-30.158v16.855
	c46.066,12.338,82.5,54.345,82.5,104.303C368,305.999,336.586,346.52,289.5,358.159z"/>
</svg>
